{
    "asset" : {
        "generator" : "Khronos glTF Blender I/O v1.7.33",
        "version" : "2.0"
    },
    "scene" : 0,
    "scenes" : [
        {
            "name" : "Scene",
            "nodes" : [
                0,
                1,
                2,
                3,
                4,
                5,
                6,
                7,
                8
            ]
        }
    ],
    "nodes" : [
        {
            "mesh" : 0,
            "name" : "lower_part_of_handle",
            "rotation" : [
                0.7071068286895752,
                0,
                0,
                0.7071067094802856
            ]
        },
        {
            "mesh" : 1,
            "name" : "kernel",
            "rotation" : [
                0.7071068286895752,
                0,
                0,
                0.7071067094802856
            ]
        },
        {
            "mesh" : 2,
            "name" : "cap",
            "rotation" : [
                0.7071068286895752,
                0,
                0,
                0.7071067094802856
            ]
        },
        {
            "mesh" : 3,
            "name" : "holder",
            "rotation" : [
                0.7071068286895752,
                0,
                0,
                0.7071067094802856
            ]
        },
        {
            "mesh" : 4,
            "name" : "central_jumper",
            "rotation" : [
                0.7071068286895752,
                0,
                0,
                0.7071067094802856
            ]
        },
        {
            "mesh" : 5,
            "name" : "top_part_of_handle",
            "rotation" : [
                0.7071068286895752,
                0,
                0,
                0.7071067094802856
            ]
        },
        {
            "mesh" : 6,
            "name" : "pile_of_leaves",
            "rotation" : [
                0.7071068286895752,
                0,
                0,
                0.7071067094802856
            ]
        },
        {
            "mesh" : 7,
            "name" : "uvula",
            "rotation" : [
                0.7071068286895752,
                0,
                0,
                0.7071067094802856
            ]
        },
        {
            "mesh" : 8,
            "name" : "cover",
            "rotation" : [
                0.7071068286895752,
                0,
                0,
                0.7071067094802856
            ]
        }
    ],
    "materials" : [
        {
            "doubleSided" : true,
            "name" : "Default OBJ",
            "pbrMetallicRoughness" : {
                "baseColorFactor" : [
                    0.800000011920929,
                    0.800000011920929,
                    0.800000011920929,
                    1
                ],
                "metallicFactor" : 0,
                "roughnessFactor" : 0.5
            }
        }
    ],
    "meshes" : [
        {
            "name" : "lower_part_of_handle",
            "primitives" : [
                {
                    "attributes" : {
                        "POSITION" : 0,
                        "NORMAL" : 1,
                        "TEXCOORD_0" : 2
                    },
                    "indices" : 3,
                    "material" : 0
                }
            ]
        },
        {
            "name" : "kernel",
            "primitives" : [
                {
                    "attributes" : {
                        "POSITION" : 4,
                        "NORMAL" : 5,
                        "TEXCOORD_0" : 6
                    },
                    "indices" : 7,
                    "material" : 0
                }
            ]
        },
        {
            "name" : "cap",
            "primitives" : [
                {
                    "attributes" : {
                        "POSITION" : 8,
                        "NORMAL" : 9,
                        "TEXCOORD_0" : 10
                    },
                    "indices" : 11,
                    "material" : 0
                }
            ]
        },
        {
            "name" : "holder",
            "primitives" : [
                {
                    "attributes" : {
                        "POSITION" : 12,
                        "NORMAL" : 13,
                        "TEXCOORD_0" : 14
                    },
                    "indices" : 15,
                    "material" : 0
                }
            ]
        },
        {
            "name" : "central_jumper",
            "primitives" : [
                {
                    "attributes" : {
                        "POSITION" : 16,
                        "NORMAL" : 17,
                        "TEXCOORD_0" : 18
                    },
                    "indices" : 19,
                    "material" : 0
                }
            ]
        },
        {
            "name" : "top_part_of_handle",
            "primitives" : [
                {
                    "attributes" : {
                        "POSITION" : 20,
                        "NORMAL" : 21,
                        "TEXCOORD_0" : 22
                    },
                    "indices" : 23,
                    "material" : 0
                }
            ]
        },
        {
            "name" : "pile_of_leaves",
            "primitives" : [
                {
                    "attributes" : {
                        "POSITION" : 24,
                        "NORMAL" : 25,
                        "TEXCOORD_0" : 26
                    },
                    "indices" : 27,
                    "material" : 0
                }
            ]
        },
        {
            "name" : "uvula",
            "primitives" : [
                {
                    "attributes" : {
                        "POSITION" : 28,
                        "NORMAL" : 29,
                        "TEXCOORD_0" : 30
                    },
                    "indices" : 31,
                    "material" : 0
                }
            ]
        },
        {
            "name" : "cover",
            "primitives" : [
                {
                    "attributes" : {
                        "POSITION" : 32,
                        "NORMAL" : 33,
                        "TEXCOORD_0" : 34
                    },
                    "indices" : 35,
                    "material" : 0
                }
            ]
        }
    ],
    "accessors" : [
        {
            "bufferView" : 0,
            "componentType" : 5126,
            "count" : 385,
            "max" : [
                15.050700187683105,
                -0.14229999482631683,
                -11.070599555969238
            ],
            "min" : [
                8.52239990234375,
                -11.888099670410156,
                -12.048600196838379
            ],
            "type" : "VEC3"
        },
        {
            "bufferView" : 1,
            "componentType" : 5126,
            "count" : 385,
            "type" : "VEC3"
        },
        {
            "bufferView" : 2,
            "componentType" : 5126,
            "count" : 385,
            "type" : "VEC2"
        },
        {
            "bufferView" : 3,
            "componentType" : 5123,
            "count" : 816,
            "type" : "SCALAR"
        },
        {
            "bufferView" : 4,
            "componentType" : 5126,
            "count" : 202,
            "max" : [
                15.109399795532227,
                0.15839999914169312,
                -11.428600311279297
            ],
            "min" : [
                14.718600273132324,
                -0.3652999997138977,
                -11.690500259399414
            ],
            "type" : "VEC3"
        },
        {
            "bufferView" : 5,
            "componentType" : 5126,
            "count" : 202,
            "type" : "VEC3"
        },
        {
            "bufferView" : 6,
            "componentType" : 5126,
            "count" : 202,
            "type" : "VEC2"
        },
        {
            "bufferView" : 7,
            "componentType" : 5123,
            "count" : 672,
            "type" : "SCALAR"
        },
        {
            "bufferView" : 8,
            "componentType" : 5126,
            "count" : 150,
            "max" : [
                4.866700172424316,
                -19.930200576782227,
                -11.270000457763672
            ],
            "min" : [
                3.9305999279022217,
                -21.045400619506836,
                -11.849100112915039
            ],
            "type" : "VEC3"
        },
        {
            "bufferView" : 9,
            "componentType" : 5126,
            "count" : 150,
            "type" : "VEC3"
        },
        {
            "bufferView" : 10,
            "componentType" : 5126,
            "count" : 150,
            "type" : "VEC2"
        },
        {
            "bufferView" : 11,
            "componentType" : 5123,
            "count" : 480,
            "type" : "SCALAR"
        },
        {
            "bufferView" : 12,
            "componentType" : 5126,
            "count" : 1068,
            "max" : [
                7.486499786376953,
                -13.30109977722168,
                -11.072600364685059
            ],
            "min" : [
                4.49970006942749,
                -19.270700454711914,
                -11.582500457763672
            ],
            "type" : "VEC3"
        },
        {
            "bufferView" : 13,
            "componentType" : 5126,
            "count" : 1068,
            "type" : "VEC3"
        },
        {
            "bufferView" : 14,
            "componentType" : 5126,
            "count" : 1068,
            "type" : "VEC2"
        },
        {
            "bufferView" : 15,
            "componentType" : 5123,
            "count" : 4308,
            "type" : "SCALAR"
        },
        {
            "bufferView" : 16,
            "componentType" : 5126,
            "count" : 162,
            "max" : [
                9.398900032043457,
                -11.436200141906738,
                -11.05739974975586
            ],
            "min" : [
                8.436400413513184,
                -12.041600227355957,
                -12.061800003051758
            ],
            "type" : "VEC3"
        },
        {
            "bufferView" : 17,
            "componentType" : 5126,
            "count" : 162,
            "type" : "VEC3"
        },
        {
            "bufferView" : 18,
            "componentType" : 5126,
            "count" : 162,
            "type" : "VEC2"
        },
        {
            "bufferView" : 19,
            "componentType" : 5123,
            "count" : 384,
            "type" : "SCALAR"
        },
        {
            "bufferView" : 20,
            "componentType" : 5126,
            "count" : 443,
            "max" : [
                9.310799598693848,
                -11.590700149536133,
                -11.072799682617188
            ],
            "min" : [
                4.268099784851074,
                -20.325000762939453,
                -12.046299934387207
            ],
            "type" : "VEC3"
        },
        {
            "bufferView" : 21,
            "componentType" : 5126,
            "count" : 443,
            "type" : "VEC3"
        },
        {
            "bufferView" : 22,
            "componentType" : 5126,
            "count" : 443,
            "type" : "VEC2"
        },
        {
            "bufferView" : 23,
            "componentType" : 5123,
            "count" : 912,
            "type" : "SCALAR"
        },
        {
            "bufferView" : 24,
            "componentType" : 5126,
            "count" : 642,
            "max" : [
                17.5492000579834,
                2.5910000801086426,
                -7.26669979095459
            ],
            "min" : [
                -0.3853999972343445,
                -18.82270050048828,
                -10.96660041809082
            ],
            "type" : "VEC3"
        },
        {
            "bufferView" : 25,
            "componentType" : 5126,
            "count" : 642,
            "type" : "VEC3"
        },
        {
            "bufferView" : 26,
            "componentType" : 5126,
            "count" : 642,
            "type" : "VEC2"
        },
        {
            "bufferView" : 27,
            "componentType" : 5123,
            "count" : 3240,
            "type" : "SCALAR"
        },
        {
            "bufferView" : 28,
            "componentType" : 5126,
            "count" : 424,
            "max" : [
                18.884899139404297,
                -5.731500148773193,
                -7.088200092315674
            ],
            "min" : [
                13.348099708557129,
                -11.36400032043457,
                -11.370699882507324
            ],
            "type" : "VEC3"
        },
        {
            "bufferView" : 29,
            "componentType" : 5126,
            "count" : 424,
            "type" : "VEC3"
        },
        {
            "bufferView" : 30,
            "componentType" : 5126,
            "count" : 424,
            "type" : "VEC2"
        },
        {
            "bufferView" : 31,
            "componentType" : 5123,
            "count" : 1980,
            "type" : "SCALAR"
        },
        {
            "bufferView" : 32,
            "componentType" : 5126,
            "count" : 1386,
            "max" : [
                18.154199600219727,
                3.3261001110076904,
                -7.097400188446045
            ],
            "min" : [
                -0.7692999839782715,
                -19.55780029296875,
                -11.154500007629395
            ],
            "type" : "VEC3"
        },
        {
            "bufferView" : 33,
            "componentType" : 5126,
            "count" : 1386,
            "type" : "VEC3"
        },
        {
            "bufferView" : 34,
            "componentType" : 5126,
            "count" : 1386,
            "type" : "VEC2"
        },
        {
            "bufferView" : 35,
            "componentType" : 5123,
            "count" : 7296,
            "type" : "SCALAR"
        }
    ],
    "bufferViews" : [
        {
            "buffer" : 0,
            "byteLength" : 4620,
            "byteOffset" : 0
        },
        {
            "buffer" : 0,
            "byteLength" : 4620,
            "byteOffset" : 4620
        },
        {
            "buffer" : 0,
            "byteLength" : 3080,
            "byteOffset" : 9240
        },
        {
            "buffer" : 0,
            "byteLength" : 1632,
            "byteOffset" : 12320
        },
        {
            "buffer" : 0,
            "byteLength" : 2424,
            "byteOffset" : 13952
        },
        {
            "buffer" : 0,
            "byteLength" : 2424,
            "byteOffset" : 16376
        },
        {
            "buffer" : 0,
            "byteLength" : 1616,
            "byteOffset" : 18800
        },
        {
            "buffer" : 0,
            "byteLength" : 1344,
            "byteOffset" : 20416
        },
        {
            "buffer" : 0,
            "byteLength" : 1800,
            "byteOffset" : 21760
        },
        {
            "buffer" : 0,
            "byteLength" : 1800,
            "byteOffset" : 23560
        },
        {
            "buffer" : 0,
            "byteLength" : 1200,
            "byteOffset" : 25360
        },
        {
            "buffer" : 0,
            "byteLength" : 960,
            "byteOffset" : 26560
        },
        {
            "buffer" : 0,
            "byteLength" : 12816,
            "byteOffset" : 27520
        },
        {
            "buffer" : 0,
            "byteLength" : 12816,
            "byteOffset" : 40336
        },
        {
            "buffer" : 0,
            "byteLength" : 8544,
            "byteOffset" : 53152
        },
        {
            "buffer" : 0,
            "byteLength" : 8616,
            "byteOffset" : 61696
        },
        {
            "buffer" : 0,
            "byteLength" : 1944,
            "byteOffset" : 70312
        },
        {
            "buffer" : 0,
            "byteLength" : 1944,
            "byteOffset" : 72256
        },
        {
            "buffer" : 0,
            "byteLength" : 1296,
            "byteOffset" : 74200
        },
        {
            "buffer" : 0,
            "byteLength" : 768,
            "byteOffset" : 75496
        },
        {
            "buffer" : 0,
            "byteLength" : 5316,
            "byteOffset" : 76264
        },
        {
            "buffer" : 0,
            "byteLength" : 5316,
            "byteOffset" : 81580
        },
        {
            "buffer" : 0,
            "byteLength" : 3544,
            "byteOffset" : 86896
        },
        {
            "buffer" : 0,
            "byteLength" : 1824,
            "byteOffset" : 90440
        },
        {
            "buffer" : 0,
            "byteLength" : 7704,
            "byteOffset" : 92264
        },
        {
            "buffer" : 0,
            "byteLength" : 7704,
            "byteOffset" : 99968
        },
        {
            "buffer" : 0,
            "byteLength" : 5136,
            "byteOffset" : 107672
        },
        {
            "buffer" : 0,
            "byteLength" : 6480,
            "byteOffset" : 112808
        },
        {
            "buffer" : 0,
            "byteLength" : 5088,
            "byteOffset" : 119288
        },
        {
            "buffer" : 0,
            "byteLength" : 5088,
            "byteOffset" : 124376
        },
        {
            "buffer" : 0,
            "byteLength" : 3392,
            "byteOffset" : 129464
        },
        {
            "buffer" : 0,
            "byteLength" : 3960,
            "byteOffset" : 132856
        },
        {
            "buffer" : 0,
            "byteLength" : 16632,
            "byteOffset" : 136816
        },
        {
            "buffer" : 0,
            "byteLength" : 16632,
            "byteOffset" : 153448
        },
        {
            "buffer" : 0,
            "byteLength" : 11088,
            "byteOffset" : 170080
        },
        {
            "buffer" : 0,
            "byteLength" : 14592,
            "byteOffset" : 181168
        }
    ],
    "buffers" : [
        {
            "byteLength" : 195760,
            "uri" : "data:application/octet-stream;base64,"
        }
    ]
}
